<mxfile host="Electron" agent="Mozilla/5.0 (Windows NT 10.0; Win64; x64) AppleWebKit/537.36 (KHTML, like Gecko) draw.io/26.0.4 Chrome/128.0.6613.186 Electron/32.2.5 Safari/537.36" version="26.0.4">
  <diagram name="Page-1" id="OgW0fL5i5EhkxWQOSvkH">
    <mxGraphModel dx="1526" dy="1029" grid="1" gridSize="10" guides="1" tooltips="1" connect="1" arrows="1" fold="1" page="1" pageScale="1" pageWidth="850" pageHeight="1100" math="0" shadow="0">
      <root>
        <mxCell id="0" />
        <mxCell id="1" parent="0" />
        <mxCell id="Ad5x72LLQradiXPK2QQF-4" value="" style="edgeStyle=orthogonalEdgeStyle;rounded=0;orthogonalLoop=1;jettySize=auto;html=1;" edge="1" parent="1" source="Ad5x72LLQradiXPK2QQF-2">
          <mxGeometry relative="1" as="geometry">
            <mxPoint x="425" y="130" as="targetPoint" />
          </mxGeometry>
        </mxCell>
        <mxCell id="Ad5x72LLQradiXPK2QQF-2" value="Start" style="strokeWidth=2;html=1;shape=mxgraph.flowchart.terminator;whiteSpace=wrap;" vertex="1" parent="1">
          <mxGeometry x="340" y="30" width="170" height="50" as="geometry" />
        </mxCell>
        <mxCell id="Ad5x72LLQradiXPK2QQF-13" value="" style="edgeStyle=orthogonalEdgeStyle;rounded=0;orthogonalLoop=1;jettySize=auto;html=1;" edge="1" parent="1" source="Ad5x72LLQradiXPK2QQF-5" target="Ad5x72LLQradiXPK2QQF-12">
          <mxGeometry relative="1" as="geometry" />
        </mxCell>
        <mxCell id="Ad5x72LLQradiXPK2QQF-5" value="input customersLastName" style="shape=parallelogram;html=1;strokeWidth=2;perimeter=parallelogramPerimeter;whiteSpace=wrap;rounded=1;arcSize=12;size=0.23;strokeColor=default;align=center;verticalAlign=middle;fontFamily=Helvetica;fontSize=12;fontColor=default;fillColor=default;" vertex="1" parent="1">
          <mxGeometry x="320" y="130" width="200" height="50" as="geometry" />
        </mxCell>
        <mxCell id="Ad5x72LLQradiXPK2QQF-21" value="" style="edgeStyle=orthogonalEdgeStyle;rounded=0;orthogonalLoop=1;jettySize=auto;html=1;" edge="1" parent="1" source="Ad5x72LLQradiXPK2QQF-12" target="Ad5x72LLQradiXPK2QQF-14">
          <mxGeometry relative="1" as="geometry" />
        </mxCell>
        <mxCell id="Ad5x72LLQradiXPK2QQF-12" value="input numOfBathrooms" style="shape=parallelogram;html=1;strokeWidth=2;perimeter=parallelogramPerimeter;whiteSpace=wrap;rounded=1;arcSize=12;size=0.23;strokeColor=default;align=center;verticalAlign=middle;fontFamily=Helvetica;fontSize=12;fontColor=default;fillColor=default;" vertex="1" parent="1">
          <mxGeometry x="320" y="220" width="200" height="50" as="geometry" />
        </mxCell>
        <mxCell id="Ad5x72LLQradiXPK2QQF-17" value="" style="edgeStyle=orthogonalEdgeStyle;rounded=0;orthogonalLoop=1;jettySize=auto;html=1;" edge="1" parent="1" source="Ad5x72LLQradiXPK2QQF-14" target="Ad5x72LLQradiXPK2QQF-16">
          <mxGeometry relative="1" as="geometry" />
        </mxCell>
        <mxCell id="Ad5x72LLQradiXPK2QQF-14" value="input numOfRooms" style="shape=parallelogram;html=1;strokeWidth=2;perimeter=parallelogramPerimeter;whiteSpace=wrap;rounded=1;arcSize=12;size=0.23;strokeColor=default;align=center;verticalAlign=middle;fontFamily=Helvetica;fontSize=12;fontColor=default;fillColor=default;" vertex="1" parent="1">
          <mxGeometry x="320" y="310" width="200" height="50" as="geometry" />
        </mxCell>
        <mxCell id="Ad5x72LLQradiXPK2QQF-19" value="" style="edgeStyle=orthogonalEdgeStyle;rounded=0;orthogonalLoop=1;jettySize=auto;html=1;" edge="1" parent="1" source="Ad5x72LLQradiXPK2QQF-16">
          <mxGeometry relative="1" as="geometry">
            <mxPoint x="420" y="490" as="targetPoint" />
          </mxGeometry>
        </mxCell>
        <mxCell id="Ad5x72LLQradiXPK2QQF-16" value="myAnswer serviceCharge = 40 + (15 * numOfBathrooms) + (10 * numOfRooms)&lt;div&gt;&lt;br&gt;&lt;/div&gt;" style="rounded=1;whiteSpace=wrap;html=1;strokeWidth=2;arcSize=12;" vertex="1" parent="1">
          <mxGeometry x="300" y="400" width="240" height="50" as="geometry" />
        </mxCell>
        <mxCell id="Ad5x72LLQradiXPK2QQF-23" value="" style="edgeStyle=orthogonalEdgeStyle;rounded=0;orthogonalLoop=1;jettySize=auto;html=1;" edge="1" parent="1" source="Ad5x72LLQradiXPK2QQF-20" target="Ad5x72LLQradiXPK2QQF-22">
          <mxGeometry relative="1" as="geometry" />
        </mxCell>
        <mxCell id="Ad5x72LLQradiXPK2QQF-20" value="display customersLastName" style="shape=parallelogram;html=1;strokeWidth=2;perimeter=parallelogramPerimeter;whiteSpace=wrap;rounded=1;arcSize=12;size=0.23;strokeColor=default;align=center;verticalAlign=middle;fontFamily=Helvetica;fontSize=12;fontColor=default;fillColor=default;" vertex="1" parent="1">
          <mxGeometry x="310" y="490" width="210" height="50" as="geometry" />
        </mxCell>
        <mxCell id="Ad5x72LLQradiXPK2QQF-27" value="" style="edgeStyle=orthogonalEdgeStyle;rounded=0;orthogonalLoop=1;jettySize=auto;html=1;" edge="1" parent="1" source="Ad5x72LLQradiXPK2QQF-22" target="Ad5x72LLQradiXPK2QQF-26">
          <mxGeometry relative="1" as="geometry" />
        </mxCell>
        <mxCell id="Ad5x72LLQradiXPK2QQF-22" value="display numOfBathroomsAndCost&lt;div&gt;&lt;br&gt;&lt;/div&gt;" style="shape=parallelogram;html=1;strokeWidth=2;perimeter=parallelogramPerimeter;whiteSpace=wrap;rounded=1;arcSize=12;size=0.23;strokeColor=default;align=center;verticalAlign=middle;fontFamily=Helvetica;fontSize=12;fontColor=default;fillColor=default;" vertex="1" parent="1">
          <mxGeometry x="273.75" y="590" width="282.5" height="50" as="geometry" />
        </mxCell>
        <mxCell id="Ad5x72LLQradiXPK2QQF-29" value="" style="edgeStyle=orthogonalEdgeStyle;rounded=0;orthogonalLoop=1;jettySize=auto;html=1;" edge="1" parent="1" source="Ad5x72LLQradiXPK2QQF-26" target="Ad5x72LLQradiXPK2QQF-28">
          <mxGeometry relative="1" as="geometry" />
        </mxCell>
        <mxCell id="Ad5x72LLQradiXPK2QQF-26" value="display numOfRoomsAndCost&lt;br&gt;&lt;div&gt;&lt;br&gt;&lt;/div&gt;" style="shape=parallelogram;html=1;strokeWidth=2;perimeter=parallelogramPerimeter;whiteSpace=wrap;rounded=1;arcSize=12;size=0.23;strokeColor=default;align=center;verticalAlign=middle;fontFamily=Helvetica;fontSize=12;fontColor=default;fillColor=default;" vertex="1" parent="1">
          <mxGeometry x="273.75" y="690" width="282.5" height="50" as="geometry" />
        </mxCell>
        <mxCell id="Ad5x72LLQradiXPK2QQF-31" value="" style="edgeStyle=orthogonalEdgeStyle;rounded=0;orthogonalLoop=1;jettySize=auto;html=1;" edge="1" parent="1" source="Ad5x72LLQradiXPK2QQF-28" target="Ad5x72LLQradiXPK2QQF-30">
          <mxGeometry relative="1" as="geometry" />
        </mxCell>
        <mxCell id="Ad5x72LLQradiXPK2QQF-28" value="display serviceCharge" style="shape=parallelogram;html=1;strokeWidth=2;perimeter=parallelogramPerimeter;whiteSpace=wrap;rounded=1;arcSize=12;size=0.23;strokeColor=default;align=center;verticalAlign=middle;fontFamily=Helvetica;fontSize=12;fontColor=default;fillColor=default;" vertex="1" parent="1">
          <mxGeometry x="273.75" y="780" width="282.5" height="50" as="geometry" />
        </mxCell>
        <mxCell id="Ad5x72LLQradiXPK2QQF-33" value="" style="edgeStyle=orthogonalEdgeStyle;rounded=0;orthogonalLoop=1;jettySize=auto;html=1;" edge="1" parent="1" source="Ad5x72LLQradiXPK2QQF-30" target="Ad5x72LLQradiXPK2QQF-32">
          <mxGeometry relative="1" as="geometry" />
        </mxCell>
        <mxCell id="Ad5x72LLQradiXPK2QQF-30" value="display completeMessage" style="shape=parallelogram;html=1;strokeWidth=2;perimeter=parallelogramPerimeter;whiteSpace=wrap;rounded=1;arcSize=12;size=0.23;strokeColor=default;align=center;verticalAlign=middle;fontFamily=Helvetica;fontSize=12;fontColor=default;fillColor=default;" vertex="1" parent="1">
          <mxGeometry x="273.75" y="870" width="282.5" height="50" as="geometry" />
        </mxCell>
        <mxCell id="Ad5x72LLQradiXPK2QQF-32" value="end" style="strokeWidth=2;html=1;shape=mxgraph.flowchart.terminator;whiteSpace=wrap;" vertex="1" parent="1">
          <mxGeometry x="365" y="970" width="100" height="60" as="geometry" />
        </mxCell>
      </root>
    </mxGraphModel>
  </diagram>
</mxfile>
